<svg width="108" height="29" viewBox="0 0 108 29" fill="none" xmlns="http://www.w3.org/2000/svg">
<path fill-rule="evenodd" clip-rule="evenodd" d="M102.52 0.853196C103.816 0.85409 105.059 1.37134 105.976 2.29136C106.893 3.21137 107.408 4.45893 107.409 5.76013C107.411 6.40517 107.286 7.04424 107.041 7.64054C106.796 8.23683 106.436 8.77862 105.981 9.23473C105.527 9.69084 104.987 10.0522 104.393 10.2982C103.799 10.5442 103.163 10.6698 102.52 10.6679C99.7946 10.6679 97.6035 8.49625 97.6035 5.76013C97.6035 3.05186 99.7946 0.853196 102.52 0.853196ZM102.52 1.90107C101.507 1.90219 100.536 2.30679 99.8198 3.02604C99.1036 3.74529 98.701 4.72042 98.7003 5.73737C98.7014 6.75403 99.1043 7.72874 99.8204 8.44762C100.537 9.16651 101.508 9.57086 102.52 9.57197C104.6 9.57197 106.312 7.85084 106.312 5.73737C106.312 3.62138 104.6 1.90107 102.52 1.90107Z" fill="#57B63A"/>
<path fill-rule="evenodd" clip-rule="evenodd" d="M100.497 3.01399H102.858C103.953 3.01399 104.824 3.32532 104.796 4.5934C104.796 5.21352 104.57 5.52403 104.038 5.83367C105.19 6.31458 104.317 7.89395 104.909 8.4297H103.673C103.279 7.35736 104.038 6.28585 102.633 6.28585H101.593V8.42888H100.497V3.01399ZM101.593 3.9733H102.661C103.194 3.9733 103.673 4.00198 103.673 4.67863C103.673 5.32659 103.194 5.38396 102.662 5.38396H101.593V3.9733ZM87.9938 17.718C86.444 23.769 80.9969 28.2372 74.5161 28.2372C69.2245 28.2372 64.702 25.3088 62.3478 20.9224L62.2974 20.892C62.2974 20.892 62.6294 22.4554 60.9661 25.3113C58.6968 29.2092 47.1362 30.7995 42.3791 25.4598V27.4172H17.6156C17.6156 27.4172 14.1865 20.8911 12.7981 18.6663C11.4088 16.4415 9.34038 15.6704 7.47875 15.8484V27.5066H0.00195312V0.807724H12.4434C13.2418 0.807724 16.6104 0.837271 19.1512 3.56664C21.6919 6.29601 21.0708 10.0015 20.1564 11.3978C19.4756 12.4356 19.0915 13.0591 17.3189 13.9197C17.3189 13.9197 19.3285 14.6916 20.511 17.3307C21.649 19.8728 22.8156 21.5138 23.7906 23.7091V0.777342H42.4674V6.11715H31.7414V11.3388H41.8471V16.59H31.7414V21.8108H42.0547V19.111C42.0547 19.111 44.9501 20.7722 46.9303 21.2767C48.9104 21.7812 50.7527 21.5585 51.4066 21.2683C52.3765 20.8406 52.764 20.1006 52.7816 19.645C52.8035 19.0814 52.3967 18.101 51.5697 17.4801C50.7427 16.8557 48.6448 15.3439 46.7824 14.0969C44.9207 12.8524 43.7676 10.0926 43.7676 8.37234C43.7676 6.65119 44.2719 5.37635 44.8022 4.54531C45.3343 3.71595 46.9597 1.63792 49.7677 0.807724C52.5749 -0.0224762 56.0325 -0.0815105 59.1347 1.37134C60.5534 2.08342 60.8199 2.35001 60.8199 2.35001V8.87689C60.8199 8.87689 59.6684 7.86866 58.1598 7.27554C56.6528 6.68242 55.382 6.59215 54.85 6.65121C54.318 6.71027 52.9203 7.33293 52.6934 8.4019C52.4807 9.40337 52.6934 10.2116 53.0775 10.6276C53.4607 11.0427 55.767 12.3765 57.0369 13.119C58.3077 13.8597 60.0231 15.1649 60.7308 16.2322L60.7442 16.2398C60.6462 15.5623 60.5971 14.8785 60.5971 14.1939C60.5971 6.4386 66.8301 0.150488 74.517 0.150488C81.023 0.150488 86.4852 4.65245 88.0123 10.7372L88.0964 10.9591V0.778217H96.1044V21.8184H106.98V27.4458H88.0972V17.34L87.9938 17.718ZM74.622 7.63158C71.4703 7.63158 68.9169 10.4276 68.9169 13.875C68.9169 17.3249 71.4702 20.12 74.6212 20.12C77.7704 20.12 80.3238 17.3248 80.3238 13.8758C80.3238 10.4276 77.7704 7.63158 74.6212 7.63158H74.622ZM7.49809 11.7868C7.49809 11.7868 8.44866 11.8037 9.51354 11.7716C10.5187 11.7395 12.9225 11.2941 12.9553 8.31667C12.9939 4.78832 10.5137 4.68032 9.69423 4.63223C8.87478 4.58161 7.49809 4.58161 7.49809 4.58161V11.7868Z" fill="#57B63A"/>
</svg>
